<?xml version="1.0" encoding="UTF-8"?>
<svg xmlns="http://www.w3.org/2000/svg" xmlns:xlink="http://www.w3.org/1999/xlink" viewBox="0 0 25 25" width="25px" height="25px">
<g id="surface209648781">
<path class="user-svg" id="settings-svg" style=" stroke:none;fill-rule:nonzero;fill:#9b9b9b;fill-opacity:1;" d="M 11.101562 1 C 10.859375 1 10.648438 1.175781 10.609375 1.417969 L 10.121094 4.394531 C 9.539062 4.566406 8.980469 4.796875 8.453125 5.082031 L 5.996094 3.328125 C 5.800781 3.183594 5.527344 3.207031 5.355469 3.378906 L 3.410156 5.324219 C 3.238281 5.496094 3.214844 5.765625 3.351562 5.964844 L 5.082031 8.4375 C 4.792969 8.964844 4.558594 9.527344 4.382812 10.117188 L 1.417969 10.609375 C 1.175781 10.648438 1 10.859375 1 11.101562 L 1 13.851562 C 1 14.09375 1.175781 14.304688 1.414062 14.347656 L 4.378906 14.871094 C 4.554688 15.460938 4.785156 16.023438 5.078125 16.550781 L 3.328125 19 C 3.183594 19.199219 3.207031 19.46875 3.378906 19.644531 L 5.324219 21.589844 C 5.496094 21.757812 5.765625 21.78125 5.964844 21.644531 L 8.441406 19.910156 C 8.96875 20.199219 9.527344 20.429688 10.113281 20.601562 L 10.609375 23.582031 C 10.648438 23.824219 10.859375 24 11.101562 24 L 13.851562 24 C 14.09375 24 14.304688 23.824219 14.34375 23.585938 L 14.875 20.59375 C 15.460938 20.417969 16.015625 20.183594 16.539062 19.894531 L 19.035156 21.644531 C 19.234375 21.785156 19.503906 21.761719 19.675781 21.589844 L 21.621094 19.644531 C 21.792969 19.46875 21.816406 19.195312 21.671875 19 L 19.894531 16.53125 C 20.179688 16.007812 20.40625 15.453125 20.578125 14.875 L 23.585938 14.347656 C 23.824219 14.304688 24 14.097656 24 13.855469 L 24 11.105469 C 24 10.859375 23.820312 10.648438 23.578125 10.609375 L 20.574219 10.121094 C 20.40625 9.539062 20.175781 8.988281 19.890625 8.464844 L 21.644531 5.96875 C 21.785156 5.769531 21.761719 5.496094 21.589844 5.328125 L 19.644531 3.382812 C 19.46875 3.207031 19.195312 3.1875 18.996094 3.332031 L 16.535156 5.101562 C 16.011719 4.8125 15.453125 4.578125 14.867188 4.40625 L 14.34375 1.414062 C 14.304688 1.175781 14.097656 1 13.851562 1 Z M 11.527344 2 L 13.433594 2 L 13.929688 4.84375 C 13.964844 5.039062 14.109375 5.195312 14.300781 5.242188 C 15.03125 5.425781 15.71875 5.714844 16.347656 6.09375 C 16.519531 6.195312 16.734375 6.1875 16.898438 6.070312 L 19.238281 4.390625 L 20.585938 5.738281 L 18.917969 8.109375 C 18.804688 8.273438 18.796875 8.484375 18.898438 8.65625 C 19.273438 9.28125 19.558594 9.964844 19.742188 10.691406 C 19.789062 10.882812 19.949219 11.03125 20.144531 11.0625 L 23 11.527344 L 23 13.433594 L 20.140625 13.933594 C 19.945312 13.96875 19.789062 14.117188 19.742188 14.308594 C 19.5625 15.035156 19.277344 15.71875 18.898438 16.34375 C 18.796875 16.515625 18.804688 16.730469 18.921875 16.890625 L 20.613281 19.238281 L 19.265625 20.585938 L 16.894531 18.921875 C 16.734375 18.808594 16.519531 18.800781 16.347656 18.902344 C 15.726562 19.285156 15.039062 19.574219 14.308594 19.757812 C 14.117188 19.808594 13.972656 19.960938 13.9375 20.15625 L 13.433594 23 L 11.527344 23 L 11.054688 20.167969 C 11.023438 19.972656 10.875 19.8125 10.683594 19.765625 C 9.949219 19.585938 9.261719 19.296875 8.628906 18.917969 C 8.460938 18.816406 8.246094 18.824219 8.085938 18.9375 L 5.734375 20.585938 L 4.386719 19.234375 L 6.046875 16.910156 C 6.164062 16.75 6.171875 16.53125 6.070312 16.363281 C 5.6875 15.730469 5.398438 15.039062 5.214844 14.304688 C 5.167969 14.113281 5.011719 13.96875 4.816406 13.933594 L 2 13.433594 L 2 11.527344 L 4.8125 11.058594 C 5.011719 11.027344 5.167969 10.878906 5.21875 10.6875 C 5.402344 9.949219 5.691406 9.257812 6.074219 8.628906 C 6.175781 8.457031 6.167969 8.246094 6.054688 8.082031 L 4.414062 5.734375 L 5.761719 4.386719 L 8.09375 6.050781 C 8.253906 6.167969 8.46875 6.175781 8.640625 6.074219 C 9.269531 5.695312 9.960938 5.410156 10.691406 5.230469 C 10.886719 5.183594 11.035156 5.023438 11.066406 4.824219 Z M 12.5 8.5 C 10.296875 8.5 8.5 10.296875 8.5 12.5 C 8.5 14.703125 10.296875 16.5 12.5 16.5 C 14.703125 16.5 16.5 14.703125 16.5 12.5 C 16.5 10.296875 14.703125 8.5 12.5 8.5 Z M 12.5 9.5 C 14.164062 9.5 15.5 10.835938 15.5 12.5 C 15.5 14.164062 14.164062 15.5 12.5 15.5 C 10.835938 15.5 9.5 14.164062 9.5 12.5 C 9.5 10.835938 10.835938 9.5 12.5 9.5 Z M 12.5 9.5 "/>
</g>
</svg>
