<?xml version="1.0" encoding="UTF-8"?>
<svg xmlns="http://www.w3.org/2000/svg" xmlns:xlink="http://www.w3.org/1999/xlink" width="30px" height="30px" viewBox="0 0 30 30" version="1.1" class="user-svg usersec_icons">
<g id="surface1">
<rect x="0" y="0" width="30" height="30" style="fill:rgb(100%,100%,100%);fill-opacity:1;stroke:none;"/>
<path d="M 27.15625 30 L 2.90625 30 C 1.917969 30 0.988281 29.410156 0.375 28.359375 C -0.105469 27.511719 -0.105469 26.28125 0.375 25.226562 L 1.746094 22.238281 C 2.699219 20.199219 5.058594 18.921875 6.839844 18.777344 C 7.421875 18.738281 8.585938 18.484375 9.746094 18.191406 C 10.597656 17.972656 11.082031 17.828125 11.355469 17.714844 C 11.285156 17.46875 11.152344 17.175781 10.980469 16.917969 C 8.925781 15.210938 7.695312 12.328125 7.695312 9.238281 C 7.695312 4.132812 10.980469 0.015625 15.050781 0.015625 C 19.121094 0.015625 22.398438 4.171875 22.398438 9.238281 C 22.398438 12.328125 21.171875 15.210938 19.121094 16.917969 C 18.945312 17.175781 18.808594 17.429688 18.738281 17.6875 C 19.015625 17.792969 19.496094 17.945312 20.316406 18.160156 C 21.339844 18.410156 22.566406 18.625 23.191406 18.703125 C 25 18.882812 27.324219 20.085938 28.285156 22.125 L 29.613281 25 C 30.128906 26.101562 30.128906 27.484375 29.613281 28.320312 C 29.070312 29.371094 28.109375 30 27.15625 30 Z M 15.050781 1.515625 C 11.730469 1.515625 9.066406 5.007812 9.066406 9.273438 C 9.066406 11.96875 10.128906 14.40625 11.863281 15.867188 C 11.898438 15.894531 11.96875 15.933594 12.007812 16.007812 C 12.488281 16.664062 12.753906 17.394531 12.753906 18.160156 C 12.753906 18.378906 12.691406 18.597656 12.515625 18.738281 C 12.378906 18.855469 12.042969 19.175781 10.054688 19.6875 C 9.128906 19.90625 7.730469 20.199219 6.949219 20.265625 C 5.539062 20.417969 3.660156 21.433594 2.976562 22.933594 L 1.640625 25.910156 C 1.375 26.535156 1.335938 27.265625 1.578125 27.664062 C 1.84375 28.140625 2.363281 28.613281 2.941406 28.613281 L 27.191406 28.613281 C 27.769531 28.613281 28.285156 28.140625 28.554688 27.664062 C 28.757812 27.296875 28.792969 26.421875 28.492188 25.769531 L 27.15625 22.894531 C 26.46875 21.433594 24.589844 20.417969 23.191406 20.265625 C 22.507812 20.199219 21.207031 19.984375 20.109375 19.6875 C 18.125 19.175781 17.785156 18.855469 17.644531 18.777344 C 17.511719 18.625 17.410156 18.410156 17.410156 18.191406 C 17.410156 17.429688 17.679688 16.699219 18.160156 16.046875 C 18.195312 16.007812 18.230469 15.933594 18.292969 15.894531 C 20.039062 14.480469 21.097656 12.007812 21.097656 9.339844 C 21.035156 5.007812 18.363281 1.515625 15.050781 1.515625 Z M 15.050781 1.515625 "/>
</g>
</svg>
